<svg xmlns="http://www.w3.org/2000/svg" xmlns:xlink="http://www.w3.org/1999/xlink" width="72" height="42" viewBox="0 0 72 42">
  <defs>
    <style>
      .cls-1 {
        fill-rule: evenodd;
        filter: url(#filter);
      }
    </style>
    <filter id="filter" x="672" y="3706" width="72" height="42" filterUnits="userSpaceOnUse">
      <feFlood result="flood" flood-color="#fff"/>
      <feComposite result="composite" operator="in" in2="SourceGraphic"/>
      <feBlend result="blend" in2="SourceGraphic"/>
    </filter>
  </defs>
  <path id="Icon" class="cls-1" d="M727.963,3724.89a6.872,6.872,0,0,0-6.836,6.9,1.639,1.639,0,1,0,3.278,0,3.607,3.607,0,0,1,3.573-3.61A1.645,1.645,0,1,0,727.963,3724.89Zm11.149-4.75c-0.4-.38-0.827-0.76-1.27-1.11h0l-6.054-5.18a15.8,15.8,0,0,0-8.122-2.94l0.325,0.33-3.677-3.72h-0.029a5.735,5.735,0,0,0-9.362,2.5,5.2,5.2,0,0,0-2.525-.82c-0.147-.01-0.31-0.01-0.457-0.01a5.336,5.336,0,0,0-2.85.83,5.783,5.783,0,0,0-5.479-4.01,5.71,5.71,0,0,0-3.883,1.52H695.7l-3.677,3.73,0.325-.33a15.921,15.921,0,0,0-8.122,2.93l-6.054,5.18h0a12.912,12.912,0,0,0-1.27,1.12A16.127,16.127,0,1,0,704,3733.8a8.017,8.017,0,0,0,8,0A16.069,16.069,0,1,0,739.112,3720.14Zm-51.047,22.71a11.05,11.05,0,1,1,10.957-11.05A11,11,0,0,1,688.065,3742.85Zm19.949-12.57a3.585,3.585,0,1,1,3.559-3.59A3.576,3.576,0,0,1,708.014,3730.28Zm19.949,12.57a11.05,11.05,0,1,1,10.957-11.05A11,11,0,0,1,727.963,3742.85Zm-39.9-17.96a6.872,6.872,0,0,0-6.836,6.9,1.639,1.639,0,1,0,3.278,0,3.607,3.607,0,0,1,3.573-3.61A1.645,1.645,0,1,0,688.065,3724.89Z" transform="translate(-672 -3706)"/>
</svg>
